<?xml version="1.0" standalone="no"?>
<!DOCTYPE svg PUBLIC "-//W3C//DTD SVG 20010904//EN"
 "http://www.w3.org/TR/2001/REC-SVG-20010904/DTD/svg10.dtd">
<svg version="1.0" xmlns="http://www.w3.org/2000/svg"
 width="512.000000pt" height="512.000000pt" viewBox="0 0 512.000000 512.000000"
 preserveAspectRatio="xMidYMid meet">
<metadata>
Created by potrace 1.14, written by Peter Selinger 2001-2017
</metadata>
<g transform="translate(0.000000,512.000000) scale(0.100000,-0.100000)"
fill="#000000" stroke="none">
<path d="M0 4890 l0 -79 53 -15 c28 -8 131 -35 227 -61 96 -26 202 -55 235
-65 33 -10 107 -33 165 -50 220 -67 748 -246 825 -280 11 -5 96 -39 189 -75
93 -36 183 -72 200 -80 17 -7 85 -36 151 -63 485 -201 1166 -549 1669 -853
292 -177 292 -177 526 -332 291 -194 596 -412 806 -579 34 -26 65 -48 68 -48
3 0 6 42 6 93 l0 93 -72 54 c-537 403 -1081 761 -1578 1038 -25 14 -61 34 -80
45 -307 175 -800 418 -1185 586 -66 29 -138 61 -160 71 -64 28 -487 194 -635
249 -381 140 -1184 386 -1391 426 -17 4 -19 -3 -19 -75z"/>
<path d="M2 4548 l3 -80 160 -48 c1165 -350 2373 -924 3363 -1597 119 -81 284
-195 297 -205 6 -5 91 -68 190 -141 243 -180 325 -245 585 -462 143 -119 181
-152 247 -212 13 -12 56 -50 95 -85 39 -35 94 -84 122 -110 l51 -47 3 101 c2
86 0 103 -15 117 -117 108 -372 330 -483 420 -373 303 -626 493 -965 723
-1064 722 -2258 1291 -3460 1648 -77 23 -153 45 -168 50 l-28 9 3 -81z"/>
<path d="M0 4182 l0 -78 118 -38 c675 -219 1455 -555 2057 -886 243 -133 249
-137 459 -262 360 -216 784 -500 1041 -698 33 -25 107 -82 165 -125 58 -44
107 -82 110 -85 3 -3 28 -23 55 -45 129 -102 417 -344 445 -374 8 -9 33 -31
55 -50 22 -19 93 -84 158 -145 65 -60 126 -116 135 -123 9 -7 13 -12 7 -12 -5
0 -64 42 -130 94 -244 193 -554 411 -920 650 -82 54 -170 114 -195 135 -156
129 -554 414 -836 597 -794 518 -1726 971 -2590 1259 -55 18 -108 36 -117 40
-15 6 -17 -7 -17 -134 l0 -139 93 -32 c303 -104 653 -240 935 -365 187 -82
614 -287 609 -292 -2 -2 -34 8 -73 22 -272 101 -809 279 -901 299 -10 2 -56
15 -103 28 -116 34 -527 137 -545 137 -12 0 -15 -15 -15 -75 0 -79 1 -80 50
-89 14 -2 116 -27 225 -56 851 -219 1570 -486 2330 -863 253 -126 353 -189
650 -411 136 -101 449 -348 465 -365 3 -3 48 -42 100 -86 399 -335 858 -788
1223 -1208 l77 -88 0 173 c0 165 -1 174 -22 198 -122 137 -235 257 -348 373
-74 76 -137 141 -140 145 -24 29 385 -303 473 -384 l37 -35 0 194 0 193 -136
130 c-74 71 -155 147 -178 169 -85 81 -224 205 -346 310 -159 136 -164 141
-230 195 -30 25 -57 47 -60 50 -3 3 -25 21 -50 40 -25 19 -47 37 -50 41 -11
14 -426 324 -570 426 -616 437 -1322 843 -2020 1163 -132 61 -551 239 -620
265 -19 7 -116 43 -215 80 -189 70 -615 215 -634 215 -7 0 -11 -27 -11 -78z
m4846 -2954 l19 -23 -25 20 c-14 11 -27 21 -29 22 -2 2 0 3 6 3 5 0 18 -10 29
-22z"/>
</g>
</svg>
